<svg xmlns="http://www.w3.org/2000/svg" viewBox="0 0 24 24" height="24px" width="24px" fill="#303030"><path d="m14 17h-0.13-3.78-0.09v-0.55l0.92-0.25s0.07 0 0.07-0.08 0-0.44 0-0.83v-2.07-1.49l-1.13-0.73-0.07-0.46h3.13l0.16 0.12v0.07 1.88 2.39 1.06s0 0.09 0.07 0.1l0.89 0.25z"/><path d="M13.06,7.52a1.07,1.07,0,0,1-.33.81,1.24,1.24,0,0,1-1.62,0,1.06,1.06,0,0,1-.31-.77,1,1,0,0,1,.33-.81,1.2,1.2,0,0,1,.84-.3,1.16,1.16,0,0,1,.78.27A1,1,0,0,1,13.06,7.52Z"/><path d="m12 2c-5.5151 0-10 4.4849-10 10s4.4849 10 10 10 10-4.4849 10-10-4.4849-10-10-10zm0 1.3008c4.8126 0 8.7012 3.8866 8.7012 8.6992s-3.8886 8.7012-8.7012 8.7012-8.6992-3.8886-8.6992-8.7012 3.8866-8.6992 8.6992-8.6992z"/></svg>
